<?xml version="1.0" standalone="no"?>
<svg xmlns:xlink="http://www.w3.org/1999/xlink" id="wave" style="transform:rotate(180deg); transition: 0.3s" viewBox="0 0 1440 220" version="1.1" xmlns="http://www.w3.org/2000/svg"><defs><linearGradient id="sw-gradient-0" x1="0" x2="0" y1="1" y2="0"><stop stop-color="rgba(255, 249, 234, 1)" offset="0%"/><stop stop-color="rgba(196.124, 151.095, 51.557, 1)" offset="100%"/></linearGradient></defs><path style="transform:translate(0, 0px); opacity:1" fill="url(#sw-gradient-0)" d="M0,66L34.3,88C68.6,110,137,154,206,146.7C274.3,139,343,81,411,58.7C480,37,549,51,617,66C685.7,81,754,95,823,84.3C891.4,73,960,37,1029,18.3C1097.1,0,1166,0,1234,14.7C1302.9,29,1371,59,1440,73.3C1508.6,88,1577,88,1646,102.7C1714.3,117,1783,147,1851,154C1920,161,1989,147,2057,146.7C2125.7,147,2194,161,2263,165C2331.4,169,2400,161,2469,157.7C2537.1,154,2606,154,2674,139.3C2742.9,125,2811,95,2880,69.7C2948.6,44,3017,22,3086,40.3C3154.3,59,3223,117,3291,121C3360,125,3429,73,3497,47.7C3565.7,22,3634,22,3703,18.3C3771.4,15,3840,7,3909,7.3C3977.1,7,4046,15,4114,14.7C4182.9,15,4251,7,4320,18.3C4388.6,29,4457,59,4526,91.7C4594.3,125,4663,161,4731,154C4800,147,4869,95,4903,69.7L4937.1,44L4937.1,220L4902.9,220C4868.6,220,4800,220,4731,220C4662.9,220,4594,220,4526,220C4457.1,220,4389,220,4320,220C4251.4,220,4183,220,4114,220C4045.7,220,3977,220,3909,220C3840,220,3771,220,3703,220C3634.3,220,3566,220,3497,220C3428.6,220,3360,220,3291,220C3222.9,220,3154,220,3086,220C3017.1,220,2949,220,2880,220C2811.4,220,2743,220,2674,220C2605.7,220,2537,220,2469,220C2400,220,2331,220,2263,220C2194.3,220,2126,220,2057,220C1988.6,220,1920,220,1851,220C1782.9,220,1714,220,1646,220C1577.1,220,1509,220,1440,220C1371.4,220,1303,220,1234,220C1165.7,220,1097,220,1029,220C960,220,891,220,823,220C754.3,220,686,220,617,220C548.6,220,480,220,411,220C342.9,220,274,220,206,220C137.1,220,69,220,34,220L0,220Z"/></svg>